<?xml version="1.0" encoding="utf-8"?>
<svg id="master-artboard" viewBox="0 0 200 400" version="1.1" xmlns="http://www.w3.org/2000/svg" x="0px" y="0px" style="enable-background:new 0 0 200 400;" width="200px" height="400px">







<g>



	<g transform="matrix(1, 0, 0, 1, -776.2448411405214, -440.7323650465364)">
		<g>
			<path d="M 912.4000244140625 625.7000122070312 L 802.2000122070312 625.7000122070312 L 802.2000122070312 469.1000061035156 L 890.9000244140625 469.1000061035156 L 912.4000244140625 469.1000061035156 Z" class="st3" style="fill: rgb(255, 255, 255);"/>
		</g>
		<g>
			<g>
				<path class="st0" d="M816.6,494.2c-0.6,0-1-0.5-1-1v-23.9c0-0.6,0.5-1,1-1c0.6,0,1,0.5,1,1v23.9&#10;&#9;&#9;&#9;&#9;&#9;C817.6,493.7,817.2,494.2,816.6,494.2z" style="fill: rgb(223, 84, 68);"/>
			</g>
			<g>
				<path class="st0" d="M810,494.2c-0.6,0-1-0.5-1-1V476c0-0.6,0.5-1,1-1c0.6,0,1,0.5,1,1v17.1C811.1,493.7,810.6,494.2,810,494.2z&#10;&#9;&#9;&#9;&#9;&#9;" style="fill: rgb(223, 84, 68);"/>
			</g>
			<g>
				<path class="st0" d="M816.6,471.6c-0.6,0-1-0.5-1-1v-1.3c0-1.5-1.3-2.7-3-2.7c-1.3,0-2.4,0.7-2.8,1.8c-0.2,0.5-0.8,0.8-1.3,0.6&#10;&#9;&#9;&#9;&#9;&#9;c-0.5-0.2-0.8-0.8-0.6-1.3c0.7-1.9,2.6-3.1,4.7-3.1c2.8,0,5.1,2.1,5.1,4.8v1.3C817.6,471.1,817.2,471.6,816.6,471.6z" style="fill: rgb(223, 84, 68);"/>
			</g>
			<g>
				<path class="st0" d="M813.3,497.2c-2.4,0-4.3-1.8-4.3-4.1c0-0.6,0.5-1,1-1c0.6,0,1,0.5,1,1c0,1.1,1,2,2.2,2c1.2,0,2.2-0.9,2.2-2&#10;&#9;&#9;&#9;&#9;&#9;c0-0.6,0.5-1,1-1c0.6,0,1,0.5,1,1C817.6,495.4,815.7,497.2,813.3,497.2z" style="fill: rgb(223, 84, 68);"/>
			</g>
		</g>
		<g>
			<path d="M 819.700012 543.299988 H 894.900009 V 548.499988 H 819.700012 V 543.299988 Z" class="st4" style="fill: rgb(36, 44, 60);"/>
		</g>
		<g>
			<path d="M 819.700012 557.400024 H 894.900009 V 562.600024 H 819.700012 V 557.400024 Z" class="st4" style="fill: rgb(36, 44, 60);"/>
		</g>
		<g>
			<path d="M 819.700012 571.5 H 894.800011 V 576.7 H 819.700012 V 571.5 Z" class="st4" style="fill: rgb(36, 44, 60);"/>
		</g>
		<g>
			<path d="M 819.700012 529.200012 H 893.900009 V 534.400012 H 819.700012 V 529.200012 Z" class="st4" style="fill: rgb(36, 44, 60);"/>
		</g>
	</g>
	<g transform="matrix(1, 0, 0, 1, -776.2448411405214, -440.7323650465364)">
		<path class="st6" d="M854.2,497.9l-0.2,0.1c-0.7-1.1-1.7-2-2.9-2.6c-1.3-0.6-2.6-0.9-4-0.9c-1.2,0-2.3,0.2-3.4,0.6&#10;&#9;&#9;&#9;c-1.1,0.4-1.9,1-2.7,1.8c-0.7,0.8-1.3,1.7-1.7,2.7c-0.4,1-0.6,2.2-0.6,3.5c0,1.3,0.2,2.5,0.6,3.5c0.4,1,1.1,2,1.8,2.7&#10;&#9;&#9;&#9;c0.7,0.7,1.6,1.3,2.6,1.7c1,0.4,2.1,0.6,3.3,0.6c1.6,0,3-0.4,4.4-1.2c1.3-0.8,2.3-1.8,3-3l3.8,1c-0.5,1-1.1,2-1.9,2.8&#10;&#9;&#9;&#9;c-0.7,0.8-1.6,1.6-2.5,2.2c-0.9,0.6-2,1.1-3.1,1.4c-1.1,0.3-2.3,0.5-3.6,0.5c-1.7,0-3.3-0.3-4.8-0.9c-1.5-0.6-2.8-1.5-3.9-2.5&#10;&#9;&#9;&#9;c-1.1-1.1-2-2.4-2.6-3.9c-0.6-1.5-0.9-3.2-0.9-5c0-1.8,0.3-3.5,1-5c0.6-1.5,1.5-2.8,2.6-3.9c1.1-1.1,2.4-1.9,3.9-2.5&#10;&#9;&#9;&#9;c1.5-0.6,3.1-0.9,4.8-0.9c1.2,0,2.3,0.1,3.4,0.4c1.1,0.3,2.1,0.7,3,1.3c0.9,0.5,1.8,1.2,2.5,2c0.7,0.8,1.4,1.6,1.9,2.6&#10;&#9;&#9;&#9;L854.2,497.9z" style="fill: rgb(36, 44, 60); stroke: rgb(36, 44, 60); stroke-miterlimit: 10;"/>
		<path class="st6" d="M883.2,491.1l-9.8,23.7h-3.9l-9.8-23.7h4.1l6.3,15.7c0.2,0.5,0.3,1,0.5,1.5c0.2,0.5,0.3,0.9,0.4,1.2&#10;&#9;&#9;&#9;c0.1,0.3,0.2,0.6,0.3,0.8l0.1,0.3h0l0.1-0.3c0.1-0.2,0.2-0.5,0.3-0.8c0.1-0.3,0.3-0.7,0.4-1.2c0.2-0.5,0.3-0.9,0.5-1.5l6.3-15.7&#10;&#9;&#9;&#9;H883.2z" style="fill: rgb(36, 44, 60); stroke: rgb(36, 44, 60); stroke-miterlimit: 10;"/>
	</g>
</g>
</svg>
